<?xml version="1.0" encoding="utf-8"?>
<!-- Generator: Adobe Illustrator 19.0.0, SVG Export Plug-In . SVG Version: 6.00 Build 0)  -->
<svg version="1.1" id="Capa_1" xmlns="http://www.w3.org/2000/svg" xmlns:xlink="http://www.w3.org/1999/xlink" x="0px" y="0px"
	 viewBox="0 0 25 25" style="enable-background:new 0 0 25 25;" xml:space="preserve">
<style type="text/css">
	.st0{fill:#CDCFCF;}
	.st1{clip-path:url(#SVGID_2_);fill:#CDCFCF;}
</style>
<g>
	<g>
		<g id="XMLID_35_">
			<path id="XMLID_36_" class="st0" d="M12.5,25C5.6,25,0,19.4,0,12.5S5.6,0,12.5,0S25,5.6,25,12.5S19.4,25,12.5,25z M12.5,1.8
				C6.6,1.8,1.8,6.6,1.8,12.5s4.8,10.7,10.7,10.7s10.7-4.8,10.7-10.7S18.4,1.8,12.5,1.8z"/>
		</g>
	</g>
	<g>
		<defs>
			<path id="SVGID_1_" d="M12.5,1.8C6.6,1.8,1.8,6.6,1.8,12.5s4.8,10.7,10.7,10.7s10.7-4.8,10.7-10.7S18.4,1.8,12.5,1.8z"/>
		</defs>
		<clipPath id="SVGID_2_">
			<use xlink:href="#SVGID_1_"  style="overflow:visible;"/>
		</clipPath>
		<path class="st1" d="M31,27.6c-0.1-0.1-12.7-12.7-12.8-12.8c0.9-2.4,0.4-5.3-1.6-7.3c-1.4-1.4-3.4-2.2-5.4-2
			c-0.2,0-0.4,0.2-0.5,0.4c-0.1,0.2,0,0.5,0.1,0.6l3.3,3.3l-1,3.5l-3.4,0.8l-3.3-3.3c-0.2-0.2-0.4-0.2-0.6-0.1
			c-0.2,0.1-0.4,0.3-0.4,0.5c-0.2,2,0.5,4,2,5.4c2,2,4.8,2.5,7.3,1.6c0.1,0.1,0.2,0.2,0.3,0.3l1.8,1.9C30.3,33.9,30.1,34.1,30,34.2"
			/>
	</g>
</g>
</svg>
