<?xml version="1.0" encoding="utf-8"?>
<!-- Generator: Adobe Illustrator 19.0.0, SVG Export Plug-In . SVG Version: 6.00 Build 0)  -->
<svg version="1.1" id="Layer_1" xmlns="http://www.w3.org/2000/svg" xmlns:xlink="http://www.w3.org/1999/xlink" x="0px" y="0px"
	 viewBox="-269 392.9 56 56" style="enable-background:new -269 392.9 56 56;" xml:space="preserve">
<style type="text/css">
	.st0{fill:#64ABE8;}
</style>
<g>
	<g>
		<g>
			<path class="st0" d="M-240.3,404.6h-1.5c-1.5,0-2.7,1.3-2.6,2.8l0.7,16.3c0.1,1.4,1.2,2.5,2.6,2.5h0.1c1.4,0,2.6-1.1,2.6-2.5
				l0.7-16.3C-237.6,405.9-238.8,404.6-240.3,404.6z"/>
			<circle class="st0" cx="-241" cy="433.5" r="3.6"/>
		</g>
	</g>
	<path class="st0" d="M-256.9,414.9"/>
	<g>
		<path class="st0" d="M-217.6,411.9c-0.2,0-0.4,0.1-0.5,0.2l-5.6,8.5c-0.1,0.2-0.1,0.4,0,0.6c0.1,0.2,0.3,0.3,0.5,0.2l3.2-0.6
			c0,7.3-3.9,14.5-9.8,18c-12,7.2-23,1.3-27.7-4.3c-0.6-0.8-1.8-0.8-2.5-0.2c-0.8,0.6-0.8,1.8-0.2,2.5c6,7.1,20.3,13.3,32.8,4.6
			c10.2-7.1,10.8-15.5,11-20.3l2.6,1c0.2,0.1,0.4,0,0.6-0.1c0.1-0.2,0.2-0.4,0.1-0.6l-4.1-9.3C-217.2,412-217.4,411.9-217.6,411.9
			L-217.6,411.9z M-217.6,411.9"/>
	</g>
	<g>
		<path class="st0" d="M-264.4,429.9c0.2,0,0.4-0.1,0.5-0.2l5.6-8.5c0.1-0.2,0.1-0.4,0-0.6c-0.1-0.2-0.3-0.3-0.5-0.2l-3.2,0.6
			c0-7.3,3.9-14.5,9.8-18c12-7.2,23-1.3,27.7,4.3c0.6,0.8,1.8,0.8,2.5,0.2c0.8-0.6,0.8-1.8,0.2-2.5c-6-7.1-20.3-13.3-32.8-4.6
			c-10.2,7.1-10.8,15.5-11,20.3l-2.6-1c-0.2-0.1-0.4,0-0.6,0.1c-0.1,0.2-0.2,0.4-0.1,0.6l4.1,9.3
			C-264.8,429.8-264.6,429.9-264.4,429.9L-264.4,429.9z M-264.4,429.9"/>
	</g>
</g>
</svg>
