<?xml version="1.0" encoding="utf-8"?>
<!-- Generator: Adobe Illustrator 17.1.0, SVG Export Plug-In . SVG Version: 6.00 Build 0)  -->
<!DOCTYPE svg PUBLIC "-//W3C//DTD SVG 1.1//EN" "http://www.w3.org/Graphics/SVG/1.1/DTD/svg11.dtd">
<svg version="1.1" id="Layer_1" xmlns="http://www.w3.org/2000/svg" xmlns:xlink="http://www.w3.org/1999/xlink" x="0px" y="0px"
	 viewBox="0 0 56 56" enable-background="new 0 0 56 56" xml:space="preserve">
<g>
	<path fill="#F44336" d="M28,56C12.6,56,0,43.4,0,28C0,12.6,12.6,0,28,0s28,12.6,28,28C56,43.4,43.4,56,28,56z M28,4
		C14.8,4,4,14.8,4,28s10.8,24,24,24s24-10.8,24-24S41.2,4,28,4z"/>
	<g>
		<path fill="#F44336" d="M28.8,9.6h-1.7c-1.7,0-3.1,1.4-3,3.1l0.8,18.5c0.1,1.6,1.4,2.9,3,2.9h0.2c1.6,0,2.9-1.3,3-2.9l0.8-18.5
			C31.9,11,30.5,9.6,28.8,9.6z"/>
		<circle fill="#F44336" cx="28" cy="42.3" r="4.1"/>
	</g>
</g>
</svg>
