<?xml version="1.0" encoding="utf-8"?>
<!-- Generator: Adobe Illustrator 19.0.0, SVG Export Plug-In . SVG Version: 6.00 Build 0)  -->
<svg version="1.1" id="Layer_1" xmlns="http://www.w3.org/2000/svg" xmlns:xlink="http://www.w3.org/1999/xlink" x="0px" y="0px"
	 viewBox="-451 253 56 56" style="enable-background:new -451 253 56 56;" xml:space="preserve">
<style type="text/css">
	.st0{fill:#B52629;}
</style>
<g>
	<path class="st0" d="M-423,309c-15.4,0-28-12.6-28-28s12.6-28,28-28s28,12.6,28,28S-407.6,309-423,309z M-423,257
		c-13.2,0-24,10.8-24,24s10.8,24,24,24s24-10.8,24-24S-409.8,257-423,257z"/>
	<g>
		<path class="st0" d="M-422.2,262.6h-1.7c-1.7,0-3.1,1.4-3,3.1l0.8,18.5c0.1,1.6,1.4,2.9,3,2.9h0.2c1.6,0,2.9-1.3,3-2.9l0.8-18.5
			C-419.1,264-420.5,262.6-422.2,262.6z"/>
		<circle class="st0" cx="-423" cy="295.3" r="4.1"/>
	</g>
</g>
</svg>
