<?xml version="1.0" encoding="utf-8"?>
<!-- Generator: Adobe Illustrator 17.1.0, SVG Export Plug-In . SVG Version: 6.00 Build 0)  -->
<!DOCTYPE svg PUBLIC "-//W3C//DTD SVG 1.1//EN" "http://www.w3.org/Graphics/SVG/1.1/DTD/svg11.dtd">
<svg version="1.1" id="Layer_1" xmlns="http://www.w3.org/2000/svg" xmlns:xlink="http://www.w3.org/1999/xlink" x="0px" y="0px"
	 viewBox="0 0 56 56" enable-background="new 0 0 56 56" xml:space="preserve">
<g>
	<path fill="#A6D065" d="M28,56C12.6,56,0,43.4,0,28S12.6,0,28,0s28,12.6,28,28S43.4,56,28,56z M28,4C14.8,4,4,14.8,4,28
		c0,13.2,10.8,24,24,24c13.2,0,24-10.8,24-24C52,14.8,41.2,4,28,4z"/>
	<path fill="#A6D065" d="M24.4,37.8L24.4,37.8c-0.7,0-1.4-0.3-1.9-0.8l-7.1-7.1c-1-1-1-2.7,0-3.8c1-1,2.7-1,3.8,0l5.2,5.2L36.8,19
		c1-1,2.7-1,3.8,0c1,1,1,2.7,0,3.8L26.3,37C25.8,37.5,25.2,37.8,24.4,37.8z"/>
</g>
</svg>
